# xmcd
#
# Track frame offsets: 
#        150
#        16392
#        26924
#        40148
#        52682
#        63224
#        75419
#        91492
#        101610
#        112514
#        124916
#        132371
#        144628
#        155876
#        165797
#        175276
#        184834
#        194964
#        204278
#        212328
#        222805
#        234227
#        242673
#        251221
#
# Disc length: 3468 seconds
#
# Revision: 0
# Processed by: cddbd v1.5.2PL0 Copyright (c) Steve Scherf et al.
# Submitted via: ExactAudioCopy v0.99pb4
#
DISCID=450d8a18
DTITLE=Eddie Noack - Psycho
DYEAR=2013
DGENRE=Country
TTITLE0=Psycho
TTITLE1=Invisible Stripes
TTITLE2=Dolores
TTITLE3=Beer Drinkin' Blues
TTITLE4=House On A Mountain
TTITLE5=Stolen Rose
TTITLE6=Cotton Mill
TTITLE7=The End Of The Line
TTITLE8=Barbara Joy
TTITLE9=Sleeping Like A Baby (With A Bottle In My Mouth)
TTITLE10=Too Hot To Handle
TTITLE11=Tell Her
TTITLE12=Chaperoned By A Memory
TTITLE13=We Are The Lonely Ones
TTITLE14=The Fall-Out (Keeps On Hurting)
TTITLE15=Think Of Her Now
TTITLE16=When The Bright Lights Grow Dim
TTITLE17=You Can't Keep A Good Man Down
TTITLE18=Two Bright Lights
TTITLE19=Prisoner Of War
TTITLE20=Buzz Buzz Buzz
TTITLE21=Love
TTITLE22=Two Brown Eyes
TTITLE23=Does It Matter
EXTD=
EXTT0=
EXTT1=
EXTT2=
EXTT3=
EXTT4=
EXTT5=
EXTT6=
EXTT7=
EXTT8=
EXTT9=
EXTT10=
EXTT11=
EXTT12=
EXTT13=
EXTT14=
EXTT15=
EXTT16=
EXTT17=
EXTT18=
EXTT19=
EXTT20=
EXTT21=
EXTT22=
EXTT23=
PLAYORDER=
